{"title":"My Wife's Hot Friend - Missy Martinez .480p.x264.SSloco","uid":11994651,"size":79556371,"categoryP":"porn","categoryS":"other","magnet":"?xt=urn:btih:2d8e1c7759cb9e4b302bdb3a763465e089bb46db&amp;dn=My+Wife%27s+Hot+Friend+-+Missy+Martinez+.480p.x264.SSloco&amp;tr=udp%3A%2F%2Ftracker.openbittorrent.com%3A80&amp;tr=udp%3A%2F%2Fopen.demonii.com%3A1337&amp;tr=udp%3A%2F%2Ftracker.coppersurfer.tk%3A6969&amp;tr=udp%3A%2F%2Fexodus.desync.com%3A6969","seeders":0,"leechers":2,"uploader":"myhoes14","files":1,"time":1433599615,"description":"Media Info\n\n\nFormat : MPEG-4\nFormat profile : Base Media\nCodec ID : isom\nFile size : 75.9 MiB\nDuration : 26mn 30s\nOverall bit rate mode : Variable\nOverall bit rate : 400 Kbps\nEncoded date : UTC 2015-06-04 09:47:53\nTagged date : UTC 2015-06-04 09:47:53\n\nVideo\nID : 1\nFormat : AVC\nFormat/Info : Advanced Video Codec\nFormat profile : &lt;a class=&quot;__cf_email__&quot; href=&quot;/cdn-cgi/l/email-protection&quot; data-cfemail=&quot;e2aa8b858aa2aed6ccd3&quot;&gt;[email&amp;#160;protected]&lt;/a&gt;&lt;script data-cfhash='f9e31' type=&quot;text/javascript&quot;&gt;\n/* &lt;![CDATA[ */!function(){try{var t=&quot;currentScript&quot;in document?document.currentScript:function(){for(var t=document.getElementsByTagName(&quot;script&quot;),e=t.length;e--;)if(t[e].getAttribute(&quot;data-cfhash&quot;))return t[e]}();if(t&amp;&amp;t.previousSibling){var e,r,n,i,c=t.previousSibling,a=c.getAttribute(&quot;data-cfemail&quot;);if(a){for(e=&quot;&quot;,r=parseInt(a.substr(0,2),16),n=2;a.length-n;n+=2)i=parseInt(a.substr(n,2),16)^r,e+=String.fromCharCode(i);e=document.createTextNode(e),c.parentNode.replaceChild(e,c)}t.parentNode.removeChild(t);}}catch(u){}}()/* ]]&gt; */&lt;/script&gt;\nFormat settings, CABAC : Yes\nFormat settings, ReFrames : 12 frames\nCodec ID : avc1\nCodec ID/Info : Advanced Video Coding\nDuration : 26mn 30s\nBit rate : 360 Kbps\nMaximum bit rate : 770 Kbps\nWidth : 848 pixels\nHeight : 480 pixels\nDisplay aspect ratio : 16:9\nFrame rate mode : Constant\nFrame rate : 30.000 fps\nColor space : YUV\nChroma subsampling : 4:2:0\nBit depth : 8 bits\nScan type : Progressive\nBits/(Pixel*Frame) : 0.029\nStream size : 68.2 MiB (90%)\nWriting library : x264 core 146 r2538 121396c\nEncoding settings : cabac=1 / ref=12 / deblock=1:-1:-1 / analyse=0x3:0x133 / me=umh / subme=10 / psy=1 / psy_rd=1.00:0.15 / mixed_ref=1 / me_range=24 / chroma_me=1 / trellis=2 / 8x8dct=1 / cqm=0 / deadzone=21,11 / fast_pskip=1 / chroma_qp_offset=-3 / threads=6 / lookahead_threads=1 / sliced_threads=0 / nr=0 / decimate=1 / interlaced=0 / bluray_compat=0 / constrained_intra=0 / bframes=8 / b_pyramid=2 / b_adapt=2 / b_bias=0 / direct=3 / weightb=1 / open_gop=0 / weightp=2 / keyint=300 / keyint_min=30 / scenecut=40 / intra_refresh=0 / rc_lookahead=60 / rc=2pass / mbtree=1 / bitrate=360 / ratetol=1.0 / qcomp=0.60 / qpmin=10 / qpmax=51 / qpstep=4 / cplxblur=20.0 / qblur=0.5 / vbv_maxrate=62500 / vbv_bufsize=78125 / nal_hrd=none / filler=0 / ip_ratio=1.40 / aq=1:1.00\nEncoded date : UTC 2015-06-04 09:47:53\nTagged date : UTC 2015-06-04 09:47:57\nColor primaries : BT.709\nTransfer characteristics : BT.709\nMatrix coefficients : BT.709\nColor range : Limited\n\nAudio\nID : 2\nFormat : AAC\nFormat/Info : Advanced Audio Codec\nFormat profile : HE-AAC / LC\nCodec ID : 40\nDuration : 26mn 30s\nBit rate mode : Variable\nBit rate : 36.8 Kbps\nMaximum bit rate : 53.0 Kbps\nChannel(s) : 2 channels\nChannel positions : Front: L R\nSampling rate : 44.1 KHz / 22.05 KHz\nCompression mode : Lossy\nStream size : 6.99 MiB (9%)\nLanguage : English\nEncoded date : UTC 2015-06-04 09:47:08\nTagged date : UTC 2015-06-04 09:47:57","torrent":{"xt":"urn:btih:2d8e1c7759cb9e4b302bdb3a763465e089bb46db","amp;dn":"My+Wife%27s+Hot+Friend+-+Missy+Martinez+.480p.x264.SSloco","amp;tr":["udp%3A%2F%2Ftracker.openbittorrent.com%3A80","udp%3A%2F%2Fopen.demonii.com%3A1337","udp%3A%2F%2Ftracker.coppersurfer.tk%3A6969","udp%3A%2F%2Fexodus.desync.com%3A6969"],"infoHash":"2d8e1c7759cb9e4b302bdb3a763465e089bb46db","infoHashBuffer":{"type":"Buffer","data":[45,142,28,119,89,203,158,75,48,43,219,58,118,52,101,224,137,187,70,219]},"announce":[],"urlList":[]}}